<?xml version="1.0" encoding="utf-8"?>
<!-- Generator: Adobe Illustrator 25.0.0, SVG Export Plug-In . SVG Version: 6.00 Build 0)  -->
<svg version="1.1" id="Capa_1" xmlns="http://www.w3.org/2000/svg" xmlns:xlink="http://www.w3.org/1999/xlink" x="0px" y="0px"
	 viewBox="0 0 1920 720" style="enable-background:new 0 0 1920 720;" xml:space="preserve">
<style type="text/css">
	.st0{fill:#FFFFFF;}
	.st1{fill:#E2231A;}
	.st2{fill:#FDB71D;}
</style>
<rect class="st0" width="1920" height="720"/>
<g>
	<path class="st1" d="M46.5,318.3c-2.7-4.3-5.2-10.1-7.5-17.4c-2.3-7.3-3.5-15.1-3.5-23.2c0-15.1,3.4-25.9,10.2-32.5
		c6.8-6.6,15.6-9.9,26.4-9.9h252.9c2.7,4.3,5.2,10.1,7.5,17.4c2.3,7.3,3.5,15.1,3.5,23.2c0,15.1-3.4,25.9-10.2,32.5
		c-6.8,6.6-15.6,9.9-26.4,9.9H235v268c-4.3,1.2-10.9,2.3-20,3.5c-9.1,1.2-18.1,1.7-27,1.7c-8.9,0-16.7-0.7-23.5-2
		c-6.8-1.4-12.5-3.8-17.1-7.2c-4.6-3.5-8.1-8.3-10.4-14.5c-2.3-6.2-3.5-14.3-3.5-24.4v-225H46.5z"/>
	<path class="st1" d="M453.1,588c-3.9,1.2-10,2.3-18.3,3.5c-8.3,1.2-16.9,1.7-25.8,1.7c-8.5,0-16.2-0.6-22.9-1.7
		c-6.8-1.2-12.5-3.5-17.1-7c-4.6-3.5-8.2-8.2-10.7-14.2c-2.5-6-3.8-13.8-3.8-23.5v-174c0-8.9,1.6-16.5,4.9-22.9
		c3.3-6.4,8-12.1,14.2-17.1c6.2-5,13.8-9.6,22.9-13.6c9.1-4.1,18.8-7.6,29.3-10.7c10.4-3.1,21.3-5.5,32.5-7.2
		c11.2-1.7,22.4-2.6,33.6-2.6c18.6,0,33.2,3.6,44.1,10.7c10.8,7.2,16.2,18.9,16.2,35.1c0,5.4-0.8,10.7-2.3,16
		c-1.5,5.2-3.5,10-5.8,14.2c-8.1,0-16.4,0.4-24.9,1.2c-8.5,0.8-16.8,1.9-24.9,3.5c-8.1,1.5-15.8,3.2-22.9,4.9
		c-7.2,1.7-13.2,3.8-18.3,6.1V588z"/>
	<path class="st1" d="M592.9,310.8c3.9-1.2,10-2.3,18.3-3.5c8.3-1.2,16.9-1.7,25.8-1.7c8.5,0,16.1,0.6,22.9,1.7
		c6.8,1.2,12.5,3.5,17.1,7c4.6,3.5,8.2,8.2,10.7,14.2c2.5,6,3.8,13.8,3.8,23.5v124.7c0,15.9,3.9,27.2,11.6,33.9
		c7.7,6.8,18.9,10.1,33.6,10.1c8.9,0,16.1-0.8,21.8-2.3c5.6-1.5,10-3.1,13-4.6v-203c3.9-1.2,10-2.3,18.3-3.5
		c8.3-1.2,16.9-1.7,25.8-1.7c8.5,0,16.1,0.6,22.9,1.7c6.8,1.2,12.5,3.5,17.1,7c4.6,3.5,8.2,8.2,10.7,14.2c2.5,6,3.8,13.8,3.8,23.5
		v176.3c0,19.3-8.1,33.8-24.4,43.5c-13.5,8.5-29.7,15-48.4,19.4c-18.8,4.4-39.2,6.7-61.2,6.7c-20.9,0-40.1-2.3-57.7-7
		c-17.6-4.6-32.8-11.8-45.5-21.5c-12.8-9.7-22.6-22.1-29.6-37.4c-7-15.3-10.4-33.7-10.4-55.4V310.8z"/>
	<path class="st1" d="M911.3,628c8.5-5.4,14.7-12.9,18.6-22.3c3.9-9.5,5.8-20,5.8-31.6V310.8c4.2-0.8,10.5-1.8,18.9-3.2
		c8.3-1.4,16.7-2,25.2-2c8.5,0,16.1,0.6,22.9,1.7c6.8,1.2,12.5,3.5,17.1,7c4.6,3.5,8.2,8.2,10.7,14.2c2.5,6,3.8,13.8,3.8,23.5v231.4
		c0,16.2-1.9,30.9-5.8,44.1c-3.9,13.1-9.4,24.5-16.5,33.9c-7.2,9.5-15.9,16.8-26.1,22c-10.2,5.2-21.8,7.8-34.5,7.8
		c-17,0-30.4-5.1-40-15.4c-9.7-10.2-14.7-23.1-15.1-38.6L911.3,628z"/>
	<path class="st1" d="M1197.8,588c-4.3,0.8-10.5,1.8-18.8,3.2c-8.3,1.3-16.7,2-25.2,2c-8.5,0-16.1-0.6-22.9-1.7
		c-6.8-1.2-12.5-3.5-17.1-7c-4.6-3.5-8.2-8.2-10.7-14.2c-2.5-6-3.8-13.8-3.8-23.5V310.8c4.2-0.8,10.5-1.8,18.8-3.2
		c8.3-1.4,16.7-2,25.2-2c8.5,0,16.1,0.6,22.9,1.7c6.8,1.2,12.5,3.5,17.1,7s8.2,8.2,10.7,14.2c2.5,6,3.8,13.8,3.8,23.5V588z"/>
	<path class="st1" d="M1360.8,588c-4.3,0.8-10.5,1.8-18.8,3.2c-8.3,1.3-16.7,2-25.2,2c-8.5,0-16.1-0.6-22.9-1.7
		c-6.8-1.2-12.5-3.5-17.1-7c-4.6-3.5-8.2-8.2-10.7-14.2c-2.5-6-3.8-13.8-3.8-23.5V210.4c4.2-0.8,10.5-1.8,18.8-3.2
		c8.3-1.4,16.7-2,25.2-2c8.5,0,16.1,0.6,22.9,1.7c6.8,1.2,12.5,3.5,17.1,7s8.2,8.2,10.7,14.2c2.5,6,3.8,13.8,3.8,23.5V588z"/>
	<path class="st1" d="M1523.2,588c-4.3,0.8-10.5,1.8-18.8,3.2c-8.3,1.3-16.7,2-25.2,2c-8.5,0-16.1-0.6-22.9-1.7
		c-6.8-1.2-12.5-3.5-17.1-7c-4.6-3.5-8.2-8.2-10.7-14.2c-2.5-6-3.8-13.8-3.8-23.5V210.4c4.2-0.8,10.5-1.8,18.8-3.2
		c8.3-1.4,16.7-2,25.2-2c8.5,0,16.1,0.6,22.9,1.7c6.8,1.2,12.5,3.5,17.1,7s8.2,8.2,10.7,14.2c2.5,6,3.8,13.8,3.8,23.5V588z"/>
	<path class="st1" d="M1877,447.7c0,24-3.7,45.3-11,64.1c-7.3,18.8-17.7,34.5-31,47.3c-13.3,12.8-29.3,22.4-47.8,29
		s-39.2,9.9-62.1,9.9c-22.8,0-43.5-3.5-62.1-10.4c-18.6-7-34.5-16.9-47.8-29.9c-13.3-13-23.7-28.7-31-47.3
		c-7.3-18.6-11-39.4-11-62.6c0-22.8,3.7-43.5,11-62.1c7.3-18.6,17.7-34.3,31-47.3c13.3-13,29.3-22.9,47.8-29.9
		c18.6-7,39.2-10.4,62.1-10.4c22.8,0,43.5,3.6,62.1,10.7c18.6,7.2,34.5,17.2,47.8,30.2c13.3,13,23.7,28.7,31,47.3
		C1873.3,404.7,1877,425.2,1877,447.7z M1674,447.7c0,23.6,4.5,41.7,13.6,54.2c9.1,12.6,21.8,18.8,38,18.8
		c16.2,0,28.7-6.4,37.4-19.1c8.7-12.8,13.1-30.7,13.1-53.9s-4.5-41.1-13.3-53.6c-8.9-12.6-21.5-18.9-37.7-18.9
		c-16.2,0-28.8,6.3-37.7,18.9C1678.4,406.6,1674,424.5,1674,447.7z"/>
</g>
<path class="st1" d="M908.5,188.1c-2.8,2.1-4.4,5.6-4,9.1c0.4,4.5,3.9,6.9,4.3,7.2c6,2.9,11,5.5,14.7,7.5c6.6,3.5,9.8,5.6,14.4,8.3
	c3.3,1.9,7.6,4.8,11.9,9.4c3.4,3.6,5.9,7.2,7.6,10.2c3,5.2,6.1,10.8,9.1,16.6c3.2,6.1,6.1,12.1,8.9,17.9c0.6,1.3,2.1,4.2,5.2,5.2
	c1.7,0.5,3.2,0.3,3.8,0.2c3.3-0.6,5.1-2.9,5.5-3.5c4.8-8.4,8.1-15.5,10.4-20.6c2.1-4.7,3.5-8.2,6.6-13.4c2-3.3,4.7-7.2,8.6-11.2
	c3.5-3.6,7-6.3,9.9-8.3c4-2.9,8.7-5.9,13.9-8.8c5.9-3.3,11.4-5.8,16.4-7.8c3.5-1.4,6.2-5.2,6.3-9.4c0.1-4.3-3.3-7.5-4.3-8.3
	c-7.1-4.7-13.1-8.1-17.5-10.4c-5.7-3-9.8-5.1-15.9-9.4c-2.5-1.8-5.4-4.1-8.3-7.2c-4-4.2-6.7-8.4-8.6-11.8c-2.5-4.5-5.1-9.3-7.6-14.4
	c-2.7-5.6-5.1-11-7.2-16.2c-1.3-3.2-4.8-6.1-8.7-6c-4.5,0.1-7.4,4.9-7.8,5.6c-3.9,7.4-6.9,13.2-8.9,16.8c-4,7.6-5.9,11-9.1,16
	c-1.8,2.7-4.1,5.9-7.1,9.1c-3.3,3.6-6.6,6.3-9.4,8.3c-4.6,3.4-8.1,5.4-13.7,8.6C919.6,182,913,185.6,908.5,188.1z"/>
<path class="st2" d="M1064.5,124.9c-3.4,2.6-5.3,6.9-4.9,11.2c0.4,5.5,4.4,8.4,4.9,8.8c7.1,3.5,12.9,6.6,17.1,8.9
	c7.7,4.2,11.4,6.7,16.8,9.9c3.8,2.2,8.8,5.8,13.8,11.2c4,4.4,6.8,8.7,8.7,12.3c3.5,6.4,6.9,13.1,10.4,20.1c3.6,7.4,7,14.7,10,21.7
	c3.4,7.7,8.5,6.5,10,6.4c3.4-0.3,5.8-3,6.9-4.3c5.8-10.4,9.9-19.1,12.6-25.3c2.5-5.8,4.3-10.1,8-16.4c2.4-4,5.7-8.9,10.4-13.9
	c4.2-4.5,8.3-7.9,11.8-10.3c4.8-3.6,10.3-7.4,16.6-11c7-4.1,13.6-7.3,19.5-9.7c4.1-1.7,7.5-6.4,7.6-11.5c0.2-5.3-3.8-9.1-4.9-10.1
	c-8.3-5.7-15.3-9.7-20.3-12.5c-6.6-3.6-11.5-6-18.6-11.2c-2.9-2.1-6.3-4.9-9.7-8.7c-4.6-5.1-7.7-10.1-9.9-14.2
	c-2.9-5.4-5.8-11.3-8.6-17.5c-3.1-6.8-5.8-13.4-8.1-19.6c-1.5-3.9-5.6-7.4-10.2-7.2c-5.3,0.2-8.8,6.1-9.3,7
	c-4.7,9.1-8.4,16.2-10.8,20.7c-4.8,9.4-7.1,13.6-11,19.8c-2.2,3.4-4.9,7.3-8.5,11.2c-4,4.4-7.9,7.8-11.2,10.3
	c-5.5,4.2-9.7,6.8-16.2,10.7C1077.7,117.2,1069.9,121.8,1064.5,124.9z"/>
</svg>
